<svg width="40" height="40" viewBox="0 0 40 40" fill="none" xmlns="http://www.w3.org/2000/svg">
<path d="M11.8743 0.00961026C5.62262 0.00961026 0.51786 5.22925 0.51786 11.6216V28.4052C0.51786 34.788 5.62262 39.998 11.8743 39.998H28.2885C34.5308 39.998 39.6261 34.7784 39.6261 28.386V11.612C39.6261 5.21964 34.5308 0 28.2791 0H11.8743V0.00961026ZM11.8743 3.08565H28.2791C32.9044 3.08565 36.6178 6.88262 36.6178 11.6216V28.3956C36.6178 33.1346 32.9044 36.9316 28.2885 36.9316H11.8743C7.23959 36.9316 3.52619 33.1346 3.52619 28.4149V11.6312C3.53559 6.88262 7.24899 3.08565 11.8743 3.08565ZM32.1147 6.16168C31.278 6.16168 30.6105 6.84418 30.6105 7.6997C30.6105 8.55522 31.278 9.23772 32.1147 9.23772C32.9514 9.23772 33.6189 8.55522 33.6189 7.6997C33.6189 6.84418 32.9514 6.16168 32.1147 6.16168ZM20.0814 9.23772C14.2904 9.23772 9.55224 14.0825 9.55224 20.0038C9.55224 25.9252 14.2904 30.7699 20.0814 30.7699C25.8724 30.7699 30.6105 25.9252 30.6105 20.0038C30.6105 14.0825 25.8724 9.23772 20.0814 9.23772ZM20.0814 12.3137C24.2554 12.3137 27.6022 15.7358 27.6022 20.0038C27.6022 24.2718 24.2554 27.6939 20.0814 27.6939C15.9073 27.6939 12.5606 24.2718 12.5606 20.0038C12.5606 15.7358 15.9073 12.3137 20.0814 12.3137Z" fill="#070707"/>
<path fill-rule="evenodd" clip-rule="evenodd" d="M12.8743 1.00961H11.8743C6.19577 1.00961 1.51786 5.76044 1.51786 11.6216V28.4052C1.51786 34.2552 6.19417 38.998 11.8743 38.998H28.2885C33.956 38.998 38.6261 34.2488 38.6261 28.386V11.612C38.6261 5.74974 33.9565 1 28.2791 1H12.8743V1.00961ZM11.8743 0.00961026C5.62262 0.00961026 0.51786 5.22925 0.51786 11.6216V28.4052C0.51786 34.788 5.62262 39.998 11.8743 39.998H28.2885C34.5308 39.998 39.6261 34.7784 39.6261 28.386V11.612C39.6261 5.21964 34.5308 0 28.2791 0H11.8743V0.00961026ZM2.52619 11.6293C2.53664 6.35283 6.67407 2.08565 11.8743 2.08565H28.2791C33.4783 2.08565 37.6178 6.35218 37.6178 11.6216V28.3956C37.6178 33.6643 33.479 37.9316 28.2885 37.9316H11.8743C6.6679 37.9316 2.52619 33.6673 2.52619 28.4149V11.6293ZM32.1147 7.16168C31.8512 7.16168 31.6105 7.37536 31.6105 7.6997C31.6105 8.02403 31.8512 8.23772 32.1147 8.23772C32.3782 8.23772 32.6189 8.02403 32.6189 7.6997C32.6189 7.37536 32.3782 7.16168 32.1147 7.16168ZM20.0814 10.2377C14.8635 10.2377 10.5522 14.6137 10.5522 20.0038C10.5522 25.394 14.8635 29.7699 20.0814 29.7699C25.2993 29.7699 29.6105 25.394 29.6105 20.0038C29.6105 14.6137 25.2993 10.2377 20.0814 10.2377ZM20.0814 11.3137C24.8286 11.3137 28.6022 15.2046 28.6022 20.0038C28.6022 24.803 24.8286 28.6939 20.0814 28.6939C15.3342 28.6939 11.5606 24.803 11.5606 20.0038C11.5606 15.2046 15.3342 11.3137 20.0814 11.3137ZM28.2791 3.08565H11.8743C7.24899 3.08565 3.53559 6.88262 3.52619 11.6312V28.4149C3.52619 33.1346 7.23959 36.9316 11.8743 36.9316H28.2885C32.9044 36.9316 36.6178 33.1346 36.6178 28.3956V11.6216C36.6178 6.88262 32.9044 3.08565 28.2791 3.08565ZM30.6105 7.6997C30.6105 6.84418 31.278 6.16168 32.1147 6.16168C32.9514 6.16168 33.6189 6.84418 33.6189 7.6997C33.6189 8.55522 32.9514 9.23772 32.1147 9.23772C31.278 9.23772 30.6105 8.55522 30.6105 7.6997ZM9.55224 20.0038C9.55224 14.0825 14.2904 9.23772 20.0814 9.23772C25.8724 9.23772 30.6105 14.0825 30.6105 20.0038C30.6105 25.9252 25.8724 30.7699 20.0814 30.7699C14.2904 30.7699 9.55224 25.9252 9.55224 20.0038ZM27.6022 20.0038C27.6022 15.7358 24.2554 12.3137 20.0814 12.3137C15.9073 12.3137 12.5606 15.7358 12.5606 20.0038C12.5606 24.2718 15.9073 27.6939 20.0814 27.6939C24.2554 27.6939 27.6022 24.2718 27.6022 20.0038Z" fill="#070707"/>
</svg>
