<svg width="42" height="42" viewBox="0 0 42 42" fill="none" xmlns="http://www.w3.org/2000/svg">
<path d="M35.2829 0.859375H6.8838C3.63944 0.859375 1 3.49174 1 6.7274V35.0504C1 38.2861 3.63944 40.9185 6.8838 40.9185H35.2829C38.5273 40.9185 41.1667 38.2861 41.1667 35.0504V6.7274C41.1667 3.49174 38.5273 0.859375 35.2829 0.859375ZM38.8132 35.0504C38.8132 36.9918 37.2295 38.5712 35.2829 38.5712H6.8838C4.93724 38.5712 3.35352 36.9918 3.35352 35.0504V6.7274C3.35352 4.78606 4.93724 3.20659 6.8838 3.20659H35.2829C37.2295 3.20659 38.8132 4.78606 38.8132 6.7274V35.0504Z" fill="#070707"/>
<path fill-rule="evenodd" clip-rule="evenodd" d="M0.75 6.7274C0.75 3.35303 3.502 0.609375 6.8838 0.609375H35.2829C38.6647 0.609375 41.4167 3.35303 41.4167 6.7274V35.0504C41.4167 38.4248 38.6647 41.1685 35.2829 41.1685H6.8838C3.502 41.1685 0.75 38.4248 0.75 35.0504V6.7274ZM6.8838 1.10938C3.77687 1.10938 1.25 3.63044 1.25 6.7274V35.0504C1.25 38.1474 3.77687 40.6685 6.8838 40.6685H35.2829C38.3899 40.6685 40.9167 38.1474 40.9167 35.0504V6.7274C40.9167 3.63044 38.3899 1.10938 35.2829 1.10938H6.8838ZM6.8838 3.45659C5.07468 3.45659 3.60352 4.92477 3.60352 6.7274V35.0504C3.60352 36.8531 5.07468 38.3212 6.8838 38.3212H35.2829C37.092 38.3212 38.5632 36.8531 38.5632 35.0504V6.7274C38.5632 4.92477 37.092 3.45659 35.2829 3.45659H6.8838ZM3.10352 6.7274C3.10352 4.64736 4.7998 2.95659 6.8838 2.95659H35.2829C37.3669 2.95659 39.0632 4.64736 39.0632 6.7274V35.0504C39.0632 37.1305 37.3669 38.8212 35.2829 38.8212H6.8838C4.7998 38.8212 3.10352 37.1305 3.10352 35.0504V6.7274Z" fill="#070707"/>
<path d="M32.1278 29.8955C30.6913 29.8955 29.2649 29.8955 27.8164 29.8955C27.8164 29.8262 27.8164 29.7616 27.8164 29.6969C27.8164 27.3624 27.816 25.0279 27.8167 22.6937C27.8167 22.1968 27.7798 21.7061 27.655 21.2215C27.1396 19.2229 24.9138 19.3397 24.0283 20.2869C23.5833 20.7629 23.2925 21.3009 23.2802 21.9657C23.2774 22.1239 23.2682 22.2824 23.2682 22.4405C23.2673 24.8566 23.2676 27.2729 23.2676 29.6889C23.2676 29.7542 23.2676 29.8195 23.2676 29.8943C21.8252 29.8943 20.3991 29.8943 18.9638 29.8943C18.9638 25.4389 18.9638 20.9882 18.9638 16.5292C20.3967 16.5292 21.8228 16.5292 23.2655 16.5292C23.2655 17.1328 23.2655 17.7274 23.2655 18.3221C23.2768 18.327 23.2882 18.3322 23.2999 18.3371C23.3306 18.2954 23.362 18.2543 23.3924 18.2123C23.8236 17.6134 24.319 17.0825 24.9774 16.7235C25.7126 16.3223 26.5067 16.1877 27.3332 16.2116C28.2282 16.2377 29.0774 16.4391 29.8427 16.9206C30.8238 17.538 31.4215 18.4413 31.7716 19.5249C32.0445 20.3693 32.134 21.2405 32.1349 22.1227C32.1371 24.6613 32.1358 27.2002 32.1355 29.7389C32.1355 29.7885 32.1309 29.8382 32.1278 29.8955Z" fill="#070707"/>
<path d="M16.3342 29.9028C14.9026 29.9028 13.4848 29.9028 12.0535 29.9028C12.0535 25.445 12.0535 20.9896 12.0535 16.5254C13.4768 16.5254 14.8986 16.5254 16.3342 16.5254C16.3342 20.9792 16.3342 25.4343 16.3342 29.9028Z" fill="#070707"/>
<path fill-rule="evenodd" clip-rule="evenodd" d="M16.3036 29.8722V16.556H12.0841V29.8722H16.3036ZM16.3342 29.9028V16.5254H12.0535V29.9028H16.3342Z" fill="#070707"/>
<path d="M14.3771 9.87305C15.7249 9.87121 16.6786 10.8297 16.6832 12.1906C16.6875 13.5371 15.7193 14.4901 14.3455 14.4907C13.0045 14.4916 12.0484 13.5329 12.0459 12.1854C12.0434 10.837 13.0134 9.87489 14.3771 9.87305Z" fill="#070707"/>
<path fill-rule="evenodd" clip-rule="evenodd" d="M16.0121 10.5424C15.6109 10.1391 15.0436 9.90275 14.3772 9.90366C13.0301 9.90547 12.0741 10.8542 12.0765 12.1854C12.0789 13.5161 13.0215 14.461 14.3455 14.4601C15.0252 14.4598 15.6027 14.224 16.0097 13.8236C16.4166 13.4232 16.6547 12.8564 16.6526 12.1907C16.6503 11.5176 16.4134 10.9457 16.0121 10.5424ZM16.6832 12.1906C16.6786 10.8297 15.7249 9.87121 14.3771 9.87305C13.0134 9.87489 12.0434 10.837 12.0459 12.1854C12.0484 13.5329 13.0045 14.4916 14.3455 14.4907C15.7193 14.4901 16.6875 13.5371 16.6832 12.1906Z" fill="#070707"/>
</svg>
